<svg width="220" height="140" viewBox="0 0 220 140" xmlns="http://www.w3.org/2000/svg">
  <!-- Centered icon mark -->
  <rect x="74" y="0" width="72" height="72" rx="16" fill="#0f1318"/>
  <rect x="74" y="0" width="72" height="36" rx="16" fill="rgba(255,255,255,0.04)"/>

  <g transform="translate(83,9)" fill="none" stroke="#ffffff" stroke-linecap="round" stroke-linejoin="round">
    <polyline points="3,27 27,7 51,27" stroke-width="2.8"/>
    <polyline points="9,25 9,50 45,50 45,25" stroke-width="2.8"/>
    <rect x="20" y="34" width="14" height="16" rx="2.5" stroke-width="2.4" fill="none"/>
  </g>

  <circle cx="125" cy="21" r="11" fill="#0f1318" stroke="#ffffff" stroke-width="2.4"/>
  <line x1="125" y1="13" x2="125" y2="16" stroke="#ffffff" stroke-width="2" stroke-linecap="round"/>
  <line x1="125" y1="21" x2="125" y2="15" stroke="#ffffff" stroke-width="2.2" stroke-linecap="round"/>
  <line x1="125" y1="21" x2="131" y2="24" stroke="#ffffff" stroke-width="2.2" stroke-linecap="round"/>
  <circle cx="125" cy="21" r="1.4" fill="#ffffff"/>

  <!-- Decorative lines flanking text -->
  <line x1="20" y1="96" x2="72" y2="96" stroke="#e0e3e8" stroke-width="1"/>
  <line x1="148" y1="96" x2="200" y2="96" stroke="#e0e3e8" stroke-width="1"/>

  <!-- Wordmark stacked -->
  <text x="110" y="102" text-anchor="middle"
    font-family="'DM Sans',-apple-system,BlinkMacSystemFont,'Segoe UI',sans-serif"
    font-size="24" font-weight="800" fill="#0f1318" letter-spacing="-0.6">Online</text>
  <text x="110" y="122" text-anchor="middle"
    font-family="'DM Sans',-apple-system,BlinkMacSystemFont,'Segoe UI',sans-serif"
    font-size="12" font-weight="600" fill="#9ba2ab" letter-spacing="2.5">RENTAL SYSTEM</text>
</svg>
